<mxfile host="app.diagrams.net" modified="2021-05-15T07:41:23.832Z" agent="5.0 (Windows NT 10.0; Win64; x64) AppleWebKit/537.36 (KHTML, like Gecko) Chrome/90.0.4430.212 Safari/537.36" etag="xCN2pIIlYeAt2ru_R-bv" version="14.6.13" type="github">
  <diagram id="C5RBs43oDa-KdzZeNtuy" name="Page-1">
    <mxGraphModel dx="1221" dy="695" grid="1" gridSize="10" guides="1" tooltips="1" connect="1" arrows="1" fold="1" page="1" pageScale="1" pageWidth="827" pageHeight="1169" math="0" shadow="0">
      <root>
        <mxCell id="WIyWlLk6GJQsqaUBKTNV-0" />
        <mxCell id="WIyWlLk6GJQsqaUBKTNV-1" parent="WIyWlLk6GJQsqaUBKTNV-0" />
        <mxCell id="OLStiNccPtmB8lBSUGuY-1" style="edgeStyle=orthogonalEdgeStyle;rounded=0;orthogonalLoop=1;jettySize=auto;html=1;" edge="1" parent="WIyWlLk6GJQsqaUBKTNV-1">
          <mxGeometry relative="1" as="geometry">
            <mxPoint x="410" y="560" as="targetPoint" />
            <mxPoint x="410" y="560" as="sourcePoint" />
          </mxGeometry>
        </mxCell>
        <mxCell id="OLStiNccPtmB8lBSUGuY-0" value="" style="rounded=1;whiteSpace=wrap;html=1;arcSize=3;" vertex="1" parent="WIyWlLk6GJQsqaUBKTNV-1">
          <mxGeometry x="20" y="100" width="800" height="640" as="geometry" />
        </mxCell>
        <mxCell id="OLStiNccPtmB8lBSUGuY-2" value="" style="rounded=1;whiteSpace=wrap;html=1;" vertex="1" parent="WIyWlLk6GJQsqaUBKTNV-1">
          <mxGeometry x="370" y="125" width="140" height="40" as="geometry" />
        </mxCell>
        <mxCell id="OLStiNccPtmB8lBSUGuY-4" value="&lt;font size=&quot;1&quot;&gt;&lt;b style=&quot;font-size: 29px&quot;&gt;Covid-19 Tracker&lt;/b&gt;&lt;/font&gt;" style="text;html=1;strokeColor=none;fillColor=none;align=center;verticalAlign=middle;whiteSpace=wrap;rounded=0;" vertex="1" parent="WIyWlLk6GJQsqaUBKTNV-1">
          <mxGeometry x="70" y="130" width="260" height="30" as="geometry" />
        </mxCell>
        <mxCell id="OLStiNccPtmB8lBSUGuY-6" value="WorldWide" style="text;html=1;strokeColor=none;fillColor=none;align=center;verticalAlign=middle;whiteSpace=wrap;rounded=0;fontStyle=1;fontSize=20;" vertex="1" parent="WIyWlLk6GJQsqaUBKTNV-1">
          <mxGeometry x="380" y="132.5" width="120" height="25" as="geometry" />
        </mxCell>
        <mxCell id="OLStiNccPtmB8lBSUGuY-7" value="" style="rounded=1;whiteSpace=wrap;html=1;fontSize=20;" vertex="1" parent="WIyWlLk6GJQsqaUBKTNV-1">
          <mxGeometry x="80" y="200" width="160" height="70" as="geometry" />
        </mxCell>
        <mxCell id="OLStiNccPtmB8lBSUGuY-8" value="&lt;font style=&quot;font-size: 13px&quot;&gt;coronavirus cases&lt;/font&gt;" style="text;html=1;strokeColor=none;fillColor=none;align=center;verticalAlign=middle;whiteSpace=wrap;rounded=0;fontSize=20;" vertex="1" parent="WIyWlLk6GJQsqaUBKTNV-1">
          <mxGeometry x="90" y="210" width="120" height="10" as="geometry" />
        </mxCell>
        <mxCell id="OLStiNccPtmB8lBSUGuY-9" style="edgeStyle=orthogonalEdgeStyle;rounded=0;orthogonalLoop=1;jettySize=auto;html=1;exitX=1;exitY=0.25;exitDx=0;exitDy=0;entryX=1;entryY=0.5;entryDx=0;entryDy=0;fontSize=20;" edge="1" parent="WIyWlLk6GJQsqaUBKTNV-1" source="OLStiNccPtmB8lBSUGuY-8" target="OLStiNccPtmB8lBSUGuY-8">
          <mxGeometry relative="1" as="geometry" />
        </mxCell>
        <mxCell id="OLStiNccPtmB8lBSUGuY-10" value="&lt;font style=&quot;font-size: 15px&quot;&gt;12000cr&lt;/font&gt;" style="text;html=1;strokeColor=none;fillColor=none;align=center;verticalAlign=middle;whiteSpace=wrap;rounded=0;fontSize=20;" vertex="1" parent="WIyWlLk6GJQsqaUBKTNV-1">
          <mxGeometry x="90" y="225" width="70" height="20" as="geometry" />
        </mxCell>
        <mxCell id="OLStiNccPtmB8lBSUGuY-11" value="4.5m" style="text;html=1;strokeColor=none;fillColor=none;align=center;verticalAlign=middle;whiteSpace=wrap;rounded=0;fontSize=20;" vertex="1" parent="WIyWlLk6GJQsqaUBKTNV-1">
          <mxGeometry x="90" y="250" width="70" height="20" as="geometry" />
        </mxCell>
        <mxCell id="OLStiNccPtmB8lBSUGuY-12" style="edgeStyle=orthogonalEdgeStyle;rounded=0;orthogonalLoop=1;jettySize=auto;html=1;exitX=0.5;exitY=0;exitDx=0;exitDy=0;fontSize=20;" edge="1" parent="WIyWlLk6GJQsqaUBKTNV-1" source="OLStiNccPtmB8lBSUGuY-11">
          <mxGeometry relative="1" as="geometry">
            <mxPoint x="135" y="250" as="targetPoint" />
          </mxGeometry>
        </mxCell>
        <mxCell id="OLStiNccPtmB8lBSUGuY-14" value="" style="rounded=1;whiteSpace=wrap;html=1;fontSize=20;" vertex="1" parent="WIyWlLk6GJQsqaUBKTNV-1">
          <mxGeometry x="260" y="200" width="160" height="70" as="geometry" />
        </mxCell>
        <mxCell id="OLStiNccPtmB8lBSUGuY-15" value="&lt;font style=&quot;font-size: 13px&quot;&gt;Recovered rate&lt;/font&gt;" style="text;html=1;strokeColor=none;fillColor=none;align=center;verticalAlign=middle;whiteSpace=wrap;rounded=0;fontSize=20;" vertex="1" parent="WIyWlLk6GJQsqaUBKTNV-1">
          <mxGeometry x="260" y="210" width="120" height="10" as="geometry" />
        </mxCell>
        <mxCell id="OLStiNccPtmB8lBSUGuY-16" value="&lt;font style=&quot;font-size: 15px&quot;&gt;12000cr&lt;/font&gt;" style="text;html=1;strokeColor=none;fillColor=none;align=center;verticalAlign=middle;whiteSpace=wrap;rounded=0;fontSize=20;" vertex="1" parent="WIyWlLk6GJQsqaUBKTNV-1">
          <mxGeometry x="270" y="225" width="70" height="20" as="geometry" />
        </mxCell>
        <mxCell id="OLStiNccPtmB8lBSUGuY-17" value="4.5m" style="text;html=1;strokeColor=none;fillColor=none;align=center;verticalAlign=middle;whiteSpace=wrap;rounded=0;fontSize=20;" vertex="1" parent="WIyWlLk6GJQsqaUBKTNV-1">
          <mxGeometry x="270" y="250" width="70" height="20" as="geometry" />
        </mxCell>
        <mxCell id="OLStiNccPtmB8lBSUGuY-18" value="" style="rounded=1;whiteSpace=wrap;html=1;fontSize=20;" vertex="1" parent="WIyWlLk6GJQsqaUBKTNV-1">
          <mxGeometry x="440" y="200" width="160" height="70" as="geometry" />
        </mxCell>
        <mxCell id="OLStiNccPtmB8lBSUGuY-19" value="&lt;font style=&quot;font-size: 13px&quot;&gt;Deaths&lt;/font&gt;" style="text;html=1;strokeColor=none;fillColor=none;align=center;verticalAlign=middle;whiteSpace=wrap;rounded=0;fontSize=20;" vertex="1" parent="WIyWlLk6GJQsqaUBKTNV-1">
          <mxGeometry x="420" y="210" width="120" height="10" as="geometry" />
        </mxCell>
        <mxCell id="OLStiNccPtmB8lBSUGuY-20" value="&lt;font style=&quot;font-size: 15px&quot;&gt;12000cr&lt;/font&gt;" style="text;html=1;strokeColor=none;fillColor=none;align=center;verticalAlign=middle;whiteSpace=wrap;rounded=0;fontSize=20;" vertex="1" parent="WIyWlLk6GJQsqaUBKTNV-1">
          <mxGeometry x="450" y="225" width="70" height="20" as="geometry" />
        </mxCell>
        <mxCell id="OLStiNccPtmB8lBSUGuY-21" value="4.5m" style="text;html=1;strokeColor=none;fillColor=none;align=center;verticalAlign=middle;whiteSpace=wrap;rounded=0;fontSize=20;" vertex="1" parent="WIyWlLk6GJQsqaUBKTNV-1">
          <mxGeometry x="450" y="250" width="70" height="20" as="geometry" />
        </mxCell>
        <mxCell id="OLStiNccPtmB8lBSUGuY-22" value="" style="rounded=1;whiteSpace=wrap;html=1;fontSize=20;arcSize=8;" vertex="1" parent="WIyWlLk6GJQsqaUBKTNV-1">
          <mxGeometry x="80" y="300" width="520" height="370" as="geometry" />
        </mxCell>
        <mxCell id="OLStiNccPtmB8lBSUGuY-23" value="" style="shape=image;html=1;verticalAlign=top;verticalLabelPosition=bottom;labelBackgroundColor=#ffffff;imageAspect=0;aspect=fixed;image=https://cdn3.iconfinder.com/data/icons/logos-brands-3/24/logo_brand_brands_logos_maps_google-128.png;fontSize=20;" vertex="1" parent="WIyWlLk6GJQsqaUBKTNV-1">
          <mxGeometry x="180" y="300" width="340" height="340" as="geometry" />
        </mxCell>
        <mxCell id="OLStiNccPtmB8lBSUGuY-24" value="" style="rounded=1;whiteSpace=wrap;html=1;fontSize=20;" vertex="1" parent="WIyWlLk6GJQsqaUBKTNV-1">
          <mxGeometry x="620" y="125" width="190" height="545" as="geometry" />
        </mxCell>
        <mxCell id="OLStiNccPtmB8lBSUGuY-25" value="cases by country" style="text;html=1;strokeColor=none;fillColor=none;align=center;verticalAlign=middle;whiteSpace=wrap;rounded=0;fontSize=20;fontStyle=1" vertex="1" parent="WIyWlLk6GJQsqaUBKTNV-1">
          <mxGeometry x="620" y="140" width="170" height="20" as="geometry" />
        </mxCell>
        <mxCell id="OLStiNccPtmB8lBSUGuY-26" value="&lt;table border=&quot;1&quot; width=&quot;100%&quot; height=&quot;100%&quot; cellpadding=&quot;4&quot; style=&quot;width:100%;height:100%;border-collapse:collapse;&quot;&gt;&lt;tr style=&quot;background-color:#A7C942;color:#ffffff;border:1px solid #98bf21;&quot;&gt;&lt;th align=&quot;left&quot;&gt;Title 1&lt;/th&gt;&lt;th align=&quot;left&quot;&gt;Title 2&lt;/th&gt;&lt;th align=&quot;left&quot;&gt;Title 3&lt;/th&gt;&lt;/tr&gt;&lt;tr style=&quot;border:1px solid #98bf21;&quot;&gt;&lt;td&gt;Value 1&lt;/td&gt;&lt;td&gt;Value 2&lt;/td&gt;&lt;td&gt;Value 3&lt;/td&gt;&lt;/tr&gt;&lt;tr style=&quot;background-color:#EAF2D3;border:1px solid #98bf21;&quot;&gt;&lt;td&gt;Value 4&lt;/td&gt;&lt;td&gt;Value 5&lt;/td&gt;&lt;td&gt;Value 6&lt;/td&gt;&lt;/tr&gt;&lt;tr style=&quot;border:1px solid #98bf21;&quot;&gt;&lt;td&gt;Value 7&lt;/td&gt;&lt;td&gt;Value 8&lt;/td&gt;&lt;td&gt;Value 9&lt;/td&gt;&lt;/tr&gt;&lt;tr style=&quot;background-color:#EAF2D3;border:1px solid #98bf21;&quot;&gt;&lt;td&gt;Value 10&lt;/td&gt;&lt;td&gt;Value 11&lt;/td&gt;&lt;td&gt;Value 12&lt;/td&gt;&lt;/tr&gt;&lt;/table&gt;" style="text;html=1;strokeColor=#c0c0c0;fillColor=#ffffff;overflow=fill;rounded=0;fontSize=20;" vertex="1" parent="WIyWlLk6GJQsqaUBKTNV-1">
          <mxGeometry x="630" y="180" width="170" height="270" as="geometry" />
        </mxCell>
        <mxCell id="OLStiNccPtmB8lBSUGuY-27" value="&lt;font style=&quot;font-size: 16px&quot;&gt;&lt;b&gt;worldwide new cases&lt;/b&gt;&lt;/font&gt;" style="text;html=1;strokeColor=none;fillColor=none;align=center;verticalAlign=middle;whiteSpace=wrap;rounded=0;fontSize=20;" vertex="1" parent="WIyWlLk6GJQsqaUBKTNV-1">
          <mxGeometry x="630" y="460" width="170" height="20" as="geometry" />
        </mxCell>
        <mxCell id="OLStiNccPtmB8lBSUGuY-30" value="" style="shape=image;html=1;verticalAlign=top;verticalLabelPosition=bottom;labelBackgroundColor=#ffffff;imageAspect=0;aspect=fixed;image=https://cdn1.iconfinder.com/data/icons/powerful-seo-icon-set/128/SEO_Performance_2__.png;fontSize=20;" vertex="1" parent="WIyWlLk6GJQsqaUBKTNV-1">
          <mxGeometry x="620" y="490" width="190" height="190" as="geometry" />
        </mxCell>
      </root>
    </mxGraphModel>
  </diagram>
</mxfile>
